STARTFONT 2.1
FONT -B&H-Lucida Bright-Medium-R-Normal--12-120-72-72-P-68-ISO8859-1
SIZE 12 72 72
FONTBOUNDINGBOX 18 15 -6 -3

STARTPROPERTIES 22
FONTNAME_REGISTRY "-"
FOUNDRY "B&H"
FAMILY_NAME "Lucida Bright"
WEIGHT_NAME "Medium"
SLANT "R"
SETWIDTH_NAME "Normal"
ADD_STYLE_NAME ""
PIXEL_SIZE 12
POINT_SIZE 120
RESOLUTION_X 72
RESOLUTION_Y 72
SPACING "P"
CHARSET_REGISTRY "ISO8859"
CHARSET_ENCODING "1"
FULL_NAME "LucidaBright"
AVERAGE_WIDTH 68
WEIGHT 10
X_HEIGHT 6
QUAD_WIDTH 7
DEFAULT_CHAR 32
FONT_DESCENT 3
FONT_ASCENT 12
ENDPROPERTIES

CHARS 190

STARTCHAR space
ENCODING 32
SWIDTH 333 0
DWIDTH 4 0
BBX 1 1 0 0
BITMAP
00
ENDCHAR

STARTCHAR exclam
ENCODING 33
SWIDTH 265 0
DWIDTH 3 0
BBX 1 9 1 0
BITMAP
80
80
80
80
80
80
80
00
80
ENDCHAR

STARTCHAR quotedbl
ENCODING 34
SWIDTH 386 0
DWIDTH 5 0
BBX 3 3 1 6
BITMAP
A0
A0
A0
ENDCHAR

STARTCHAR numbersign
ENCODING 35
SWIDTH 608 0
DWIDTH 7 0
BBX 7 9 0 0
BITMAP
14
14
14
7E
28
FE
28
48
50
ENDCHAR

STARTCHAR dollar
ENCODING 36
SWIDTH 608 0
DWIDTH 7 0
BBX 5 10 1 -1
BITMAP
F8
A8
A0
60
30
38
A8
A8
F0
20
ENDCHAR

STARTCHAR percent
ENCODING 37
SWIDTH 675 0
DWIDTH 8 0
BBX 8 9 0 0
BITMAP
61
92
94
98
7E
19
29
49
86
ENDCHAR

STARTCHAR ampersand
ENCODING 38
SWIDTH 690 0
DWIDTH 8 0
BBX 9 9 0 0
BITMAP
1800
2400
2400
1400
7B80
8900
8500
C200
7F80
ENDCHAR

STARTCHAR quoteright
ENCODING 39
SWIDTH 265 0
DWIDTH 3 0
BBX 1 4 1 5
BITMAP
80
80
80
80
ENDCHAR

STARTCHAR parenleft
ENCODING 40
SWIDTH 316 0
DWIDTH 4 0
BBX 3 11 0 -2
BITMAP
20
40
80
80
80
80
80
80
80
40
20
ENDCHAR

STARTCHAR parenright
ENCODING 41
SWIDTH 316 0
DWIDTH 4 0
BBX 3 11 6 -2
BITMAP
80
40
20
20
20
20
20
20
20
40
80
ENDCHAR

STARTCHAR asterisk
ENCODING 42
SWIDTH 470 0
DWIDTH 6 0
BBX 5 5 1 4
BITMAP
20
A8
F8
50
50
ENDCHAR

STARTCHAR plus
ENCODING 43
SWIDTH 608 0
DWIDTH 7 0
BBX 7 7 0 0
BITMAP
10
10
10
FE
10
10
10
ENDCHAR

STARTCHAR comma
ENCODING 44
SWIDTH 265 0
DWIDTH 3 0
BBX 1 4 1 -3
BITMAP
80
80
80
80
ENDCHAR

STARTCHAR minus
ENCODING 45
SWIDTH 608 0
DWIDTH 7 0
BBX 7 1 0 3
BITMAP
FE
ENDCHAR

STARTCHAR period
ENCODING 46
SWIDTH 265 0
DWIDTH 3 0
BBX 1 1 1 0
BITMAP
80
ENDCHAR

STARTCHAR slash
ENCODING 47
SWIDTH 512 0
DWIDTH 6 0
BBX 6 11 0 -2
BITMAP
04
0C
08
18
10
30
20
20
40
40
80
ENDCHAR

STARTCHAR zero
ENCODING 48
SWIDTH 608 0
DWIDTH 7 0
BBX 6 9 1 0
BITMAP
38
48
84
84
84
84
84
48
30
ENDCHAR

STARTCHAR one
ENCODING 49
SWIDTH 608 0
DWIDTH 7 0
BBX 5 9 1 0
BITMAP
E0
20
20
20
20
20
20
20
F8
ENDCHAR

STARTCHAR two
ENCODING 50
SWIDTH 608 0
DWIDTH 7 0
BBX 5 9 1 0
BITMAP
F0
88
88
08
10
20
40
80
F8
ENDCHAR

STARTCHAR three
ENCODING 51
SWIDTH 608 0
DWIDTH 7 0
BBX 5 9 1 0
BITMAP
F0
88
08
08
70
08
08
88
F0
ENDCHAR

STARTCHAR four
ENCODING 52
SWIDTH 608 0
DWIDTH 7 0
BBX 6 9 0 0
BITMAP
08
18
28
28
48
C8
FC
08
1C
ENDCHAR

STARTCHAR five
ENCODING 53
SWIDTH 608 0
DWIDTH 7 0
BBX 5 9 1 0
BITMAP
F8
80
80
80
F0
18
08
88
F0
ENDCHAR

STARTCHAR six
ENCODING 54
SWIDTH 608 0
DWIDTH 7 0
BBX 6 9 1 0
BITMAP
3C
44
80
80
F8
84
84
44
78
ENDCHAR

STARTCHAR seven
ENCODING 55
SWIDTH 608 0
DWIDTH 7 0
BBX 6 9 1 0
BITMAP
FC
0C
08
10
30
20
60
40
40
ENDCHAR

STARTCHAR eight
ENCODING 56
SWIDTH 608 0
DWIDTH 7 0
BBX 6 9 1 0
BITMAP
78
84
84
C8
70
8C
84
84
78
ENDCHAR

STARTCHAR nine
ENCODING 57
SWIDTH 608 0
DWIDTH 7 0
BBX 6 9 1 0
BITMAP
78
C8
84
84
8C
74
04
88
F0
ENDCHAR

STARTCHAR colon
ENCODING 58
SWIDTH 265 0
DWIDTH 3 0
BBX 1 6 1 0
BITMAP
80
00
00
00
00
80
ENDCHAR

STARTCHAR semicolon
ENCODING 59
SWIDTH 265 0
DWIDTH 3 0
BBX 1 9 1 -3
BITMAP
80
00
00
00
00
80
80
80
80
ENDCHAR

STARTCHAR less
ENCODING 60
SWIDTH 608 0
DWIDTH 7 0
BBX 8 6 1 0
BITMAP
03
0C
F0
30
0E
03
ENDCHAR

STARTCHAR equal
ENCODING 61
SWIDTH 608 0
DWIDTH 7 0
BBX 7 3 0 2
BITMAP
FE
00
FE
ENDCHAR

STARTCHAR greater
ENCODING 62
SWIDTH 608 0
DWIDTH 7 0
BBX 8 6 0 0
BITMAP
C0
70
0C
0F
30
C0
ENDCHAR

STARTCHAR question
ENCODING 63
SWIDTH 480 0
DWIDTH 6 0
BBX 5 9 0 0
BITMAP
F0
88
88
18
30
40
40
00
40
ENDCHAR

STARTCHAR at
ENCODING 64
SWIDTH 873 0
DWIDTH 10 0
BBX 10 9 0 0
BITMAP
0F00
3080
4040
8F40
9340
9640
9680
7B00
3E00
ENDCHAR

STARTCHAR A
ENCODING 65
SWIDTH 744 0
DWIDTH 9 0
BBX 9 9 0 0
BITMAP
0800
0800
1C00
2400
2400
2200
3E00
4100
C380
ENDCHAR

STARTCHAR B
ENCODING 66
SWIDTH 609 0
DWIDTH 7 0
BBX 6 9 0 0
BITMAP
F8
44
44
48
78
4C
44
44
F8
ENDCHAR

STARTCHAR C
ENCODING 67
SWIDTH 695 0
DWIDTH 8 0
BBX 7 9 1 0
BITMAP
3C
42
82
80
80
80
80
42
3C
ENDCHAR

STARTCHAR D
ENCODING 68
SWIDTH 768 0
DWIDTH 9 0
BBX 8 9 0 0
BITMAP
FC
42
41
41
41
41
41
42
FC
ENDCHAR

STARTCHAR E
ENCODING 69
SWIDTH 566 0
DWIDTH 7 0
BBX 6 9 0 0
BITMAP
FC
44
40
48
78
48
40
44
FC
ENDCHAR

STARTCHAR F
ENCODING 70
SWIDTH 548 0
DWIDTH 7 0
BBX 5 9 1 0
BITMAP
F8
48
40
48
78
48
40
40
E0
ENDCHAR

STARTCHAR G
ENCODING 71
SWIDTH 732 0
DWIDTH 9 0
BBX 8 9 1 0
BITMAP
3E
42
82
80
80
80
C7
62
3E
ENDCHAR

STARTCHAR H
ENCODING 72
SWIDTH 771 0
DWIDTH 9 0
BBX 8 9 1 0
BITMAP
E7
42
42
42
7E
42
42
42
E7
ENDCHAR

STARTCHAR I
ENCODING 73
SWIDTH 325 0
DWIDTH 4 0
BBX 3 9 0 0
BITMAP
E0
40
40
40
40
40
40
40
E0
ENDCHAR

STARTCHAR J
ENCODING 74
SWIDTH 422 0
DWIDTH 5 0
BBX 5 11 0 -2
BITMAP
38
10
10
10
10
10
10
10
10
90
E0
ENDCHAR

STARTCHAR K
ENCODING 75
SWIDTH 708 0
DWIDTH 8 0
BBX 8 9 0 0
BITMAP
EE
44
48
50
60
50
48
44
EF
ENDCHAR

STARTCHAR L
ENCODING 76
SWIDTH 557 0
DWIDTH 7 0
BBX 6 9 0 0
BITMAP
E0
40
40
40
40
40
40
44
FC
ENDCHAR

STARTCHAR M
ENCODING 77
SWIDTH 860 0
DWIDTH 10 0
BBX 10 9 0 0
BITMAP
E0C0
6180
6180
5280
5280
4C80
4C80
4880
E1C0
ENDCHAR

STARTCHAR N
ENCODING 78
SWIDTH 751 0
DWIDTH 9 0
BBX 9 9 0 0
BITMAP
C380
6100
5100
5900
4900
4500
4300
4100
E100
ENDCHAR

STARTCHAR O
ENCODING 79
SWIDTH 777 0
DWIDTH 9 0
BBX 8 9 1 0
BITMAP
3C
42
81
81
81
81
81
42
3C
ENDCHAR

STARTCHAR P
ENCODING 80
SWIDTH 573 0
DWIDTH 7 0
BBX 6 9 0 0
BITMAP
F8
44
44
44
4C
78
40
40
E0
ENDCHAR

STARTCHAR Q
ENCODING 81
SWIDTH 778 0
DWIDTH 9 0
BBX 10 11 0 -2
BITMAP
3C00
4200
8100
8100
8100
8100
8100
4200
3C00
0400
03C0
ENDCHAR

STARTCHAR R
ENCODING 82
SWIDTH 679 0
DWIDTH 8 0
BBX 8 9 0 0
BITMAP
F8
44
44
44
58
70
48
44
E3
ENDCHAR

STARTCHAR S
ENCODING 83
SWIDTH 542 0
DWIDTH 7 0
BBX 5 9 1 0
BITMAP
78
88
88
C0
30
18
88
88
F0
ENDCHAR

STARTCHAR T
ENCODING 84
SWIDTH 663 0
DWIDTH 8 0
BBX 7 9 0 0
BITMAP
FE
10
10
10
10
10
10
10
38
ENDCHAR

STARTCHAR U
ENCODING 85
SWIDTH 719 0
DWIDTH 9 0
BBX 8 9 0 0
BITMAP
E7
42
42
42
42
42
42
66
3C
ENDCHAR

STARTCHAR V
ENCODING 86
SWIDTH 699 0
DWIDTH 8 0
BBX 8 9 0 0
BITMAP
E3
41
21
22
32
14
14
0C
08
ENDCHAR

STARTCHAR W
ENCODING 87
SWIDTH 925 0
DWIDTH 11 0
BBX 11 9 0 0
BITMAP
E460
4440
4640
2A40
2A40
2A80
3180
1180
1100
ENDCHAR

STARTCHAR X
ENCODING 88
SWIDTH 657 0
DWIDTH 8 0
BBX 8 9 0 0
BITMAP
F3
62
24
14
18
28
64
46
C7
ENDCHAR

STARTCHAR Y
ENCODING 89
SWIDTH 678 0
DWIDTH 8 0
BBX 8 9 0 0
BITMAP
E7
42
24
38
18
10
10
10
38
ENDCHAR

STARTCHAR Z
ENCODING 90
SWIDTH 633 0
DWIDTH 8 0
BBX 6 9 1 0
BITMAP
FC
88
08
10
10
20
60
44
FC
ENDCHAR

STARTCHAR bracketleft
ENCODING 91
SWIDTH 316 0
DWIDTH 4 0
BBX 2 11 1 -2
BITMAP
C0
80
80
80
80
80
80
80
80
80
C0
ENDCHAR

STARTCHAR backslash
ENCODING 92
SWIDTH 512 0
DWIDTH 6 0
BBX 6 11 0 -2
BITMAP
80
40
40
20
20
10
10
18
08
0C
04
ENDCHAR

STARTCHAR bracketright
ENCODING 93
SWIDTH 316 0
DWIDTH 4 0
BBX 2 11 1 -2
BITMAP
C0
40
40
40
40
40
40
40
40
40
C0
ENDCHAR

STARTCHAR asciicircum
ENCODING 94
SWIDTH 608 0
DWIDTH 7 0
BBX 7 7 0 2
BITMAP
10
38
28
68
44
C4
82
ENDCHAR

STARTCHAR underscore
ENCODING 95
SWIDTH 500 0
DWIDTH 6 0
BBX 5 1 1 0
BITMAP
F8
ENDCHAR

STARTCHAR quoteleft
ENCODING 96
SWIDTH 265 0
DWIDTH 3 0
BBX 1 3 1 6
BITMAP
80
80
80
ENDCHAR

STARTCHAR a
ENCODING 97
SWIDTH 543 0
DWIDTH 7 0
BBX 6 6 0 0
BITMAP
F8
88
78
88
88
7C
ENDCHAR

STARTCHAR b
ENCODING 98
SWIDTH 611 0
DWIDTH 7 0
BBX 7 9 0 0
BITMAP
C0
40
40
7C
42
42
42
46
7C
ENDCHAR

STARTCHAR c
ENCODING 99
SWIDTH 509 0
DWIDTH 6 0
BBX 5 6 1 0
BITMAP
78
C8
80
80
C0
78
ENDCHAR

STARTCHAR d
ENCODING 100
SWIDTH 642 0
DWIDTH 8 0
BBX 7 9 1 0
BITMAP
0C
04
04
7C
C4
84
84
84
7E
ENDCHAR

STARTCHAR e
ENCODING 101
SWIDTH 530 0
DWIDTH 6 0
BBX 5 6 1 0
BITMAP
70
88
F8
80
C0
78
ENDCHAR

STARTCHAR f
ENCODING 102
SWIDTH 404 0
DWIDTH 5 0
BBX 5 9 0 0
BITMAP
38
48
40
F0
40
40
40
40
E0
ENDCHAR

STARTCHAR g
ENCODING 103
SWIDTH 571 0
DWIDTH 7 0
BBX 6 9 1 -3
BITMAP
7C
88
88
88
70
80
7C
84
78
ENDCHAR

STARTCHAR h
ENCODING 104
SWIDTH 633 0
DWIDTH 8 0
BBX 7 9 0 0
BITMAP
C0
40
40
7C
44
44
44
44
EE
ENDCHAR

STARTCHAR i
ENCODING 105
SWIDTH 307 0
DWIDTH 4 0
BBX 3 9 0 0
BITMAP
40
00
00
C0
40
40
40
40
E0
ENDCHAR

STARTCHAR j
ENCODING 106
SWIDTH 346 0
DWIDTH 4 0
BBX 4 12 0 -3
BITMAP
10
00
00
30
10
10
10
10
10
10
90
E0
ENDCHAR

STARTCHAR k
ENCODING 107
SWIDTH 599 0
DWIDTH 7 0
BBX 7 9 0 0
BITMAP
C0
40
40
4E
4C
50
70
58
E6
ENDCHAR

STARTCHAR l
ENCODING 108
SWIDTH 313 0
DWIDTH 4 0
BBX 3 9 0 0
BITMAP
C0
40
40
40
40
40
40
40
E0
ENDCHAR

STARTCHAR m
ENCODING 109
SWIDTH 946 0
DWIDTH 11 0
BBX 11 6 0 0
BITMAP
FFC0
4440
4440
4440
4440
EEE0
ENDCHAR

STARTCHAR n
ENCODING 110
SWIDTH 633 0
DWIDTH 8 0
BBX 7 6 0 0
BITMAP
FC
44
44
44
44
EE
ENDCHAR

STARTCHAR o
ENCODING 111
SWIDTH 602 0
DWIDTH 7 0
BBX 6 6 1 0
BITMAP
78
CC
84
84
CC
78
ENDCHAR

STARTCHAR p
ENCODING 112
SWIDTH 642 0
DWIDTH 8 0
BBX 7 9 0 -3
BITMAP
FC
42
42
42
46
7C
40
40
E0
ENDCHAR

STARTCHAR q
ENCODING 113
SWIDTH 617 0
DWIDTH 7 0
BBX 7 9 1 -3
BITMAP
7C
C4
84
84
84
7C
04
04
0E
ENDCHAR

STARTCHAR r
ENCODING 114
SWIDTH 440 0
DWIDTH 5 0
BBX 5 6 0 0
BITMAP
F8
48
40
40
40
E0
ENDCHAR

STARTCHAR s
ENCODING 115
SWIDTH 504 0
DWIDTH 6 0
BBX 5 6 1 0
BITMAP
78
88
E0
38
88
F0
ENDCHAR

STARTCHAR t
ENCODING 116
SWIDTH 392 0
DWIDTH 5 0
BBX 4 7 0 0
BITMAP
40
F0
40
40
40
40
70
ENDCHAR

STARTCHAR u
ENCODING 117
SWIDTH 633 0
DWIDTH 8 0
BBX 7 6 0 0
BITMAP
CC
44
44
44
44
7E
ENDCHAR

STARTCHAR v
ENCODING 118
SWIDTH 545 0
DWIDTH 7 0
BBX 7 6 0 0
BITMAP
E6
44
44
28
28
10
ENDCHAR

STARTCHAR w
ENCODING 119
SWIDTH 795 0
DWIDTH 10 0
BBX 10 6 0 0
BITMAP
E9C0
4C80
4C80
3300
3300
2200
ENDCHAR

STARTCHAR x
ENCODING 120
SWIDTH 557 0
DWIDTH 7 0
BBX 7 6 0 0
BITMAP
EE
44
28
38
4C
CE
ENDCHAR

STARTCHAR y
ENCODING 121
SWIDTH 551 0
DWIDTH 7 0
BBX 7 9 0 -3
BITMAP
E6
44
64
28
28
10
10
30
60
ENDCHAR

STARTCHAR z
ENCODING 122
SWIDTH 595 0
DWIDTH 7 0
BBX 6 6 1 0
BITMAP
FC
88
10
30
64
FC
ENDCHAR

STARTCHAR braceleft
ENCODING 123
SWIDTH 343 0
DWIDTH 4 0
BBX 3 11 0 -2
BITMAP
20
40
40
40
40
80
40
40
40
40
20
ENDCHAR

STARTCHAR bar
ENCODING 124
SWIDTH 241 0
DWIDTH 3 0
BBX 1 11 1 -2
BITMAP
80
80
80
80
80
80
80
80
80
80
80
ENDCHAR

STARTCHAR braceright
ENCODING 125
SWIDTH 343 0
DWIDTH 4 0
BBX 3 11 7 -2
BITMAP
80
40
40
40
40
20
40
40
40
40
80
ENDCHAR

STARTCHAR asciitilde
ENCODING 126
SWIDTH 608 0
DWIDTH 7 0
BBX 7 2 0 2
BITMAP
F2
9E
ENDCHAR

STARTCHAR exclamdown
ENCODING 161
SWIDTH 265 0
DWIDTH 3 0
BBX 1 9 1 -3
BITMAP
80
00
80
80
80
80
80
80
80
ENDCHAR

STARTCHAR cent
ENCODING 162
SWIDTH 608 0
DWIDTH 7 0
BBX 5 9 1 0
BITMAP
20
78
A8
A0
A0
A0
A0
78
20
ENDCHAR

STARTCHAR sterling
ENCODING 163
SWIDTH 608 0
DWIDTH 7 0
BBX 5 9 1 0
BITMAP
38
48
40
40
40
E0
40
40
F8
ENDCHAR

STARTCHAR currency
ENCODING 164
SWIDTH 608 0
DWIDTH 7 0
BBX 8 6 0 1
BITMAP
99
66
42
42
66
99
ENDCHAR

STARTCHAR yen
ENCODING 165
SWIDTH 608 0
DWIDTH 7 0
BBX 7 9 0 0
BITMAP
E6
44
2C
18
7C
10
7C
10
38
ENDCHAR

STARTCHAR brokenbar
ENCODING 166
SWIDTH 241 0
DWIDTH 3 0
BBX 1 11 1 -2
BITMAP
80
80
80
80
80
00
80
80
80
80
80
ENDCHAR

STARTCHAR section
ENCODING 167
SWIDTH 608 0
DWIDTH 7 0
BBX 5 12 1 -3
BITMAP
78
88
80
80
E0
98
88
68
10
08
88
F0
ENDCHAR

STARTCHAR dieresis
ENCODING 168
SWIDTH 602 0
DWIDTH 7 0
BBX 3 1 2 8
BITMAP
A0
ENDCHAR

STARTCHAR copyright
ENCODING 169
SWIDTH 855 0
DWIDTH 10 0
BBX 10 9 0 0
BITMAP
1E00
6180
4E80
9240
9040
9040
5880
6F80
1E00
ENDCHAR

STARTCHAR ordfeminine
ENCODING 170
SWIDTH 428 0
DWIDTH 5 0
BBX 5 5 0 4
BITMAP
F0
90
70
90
F8
ENDCHAR

STARTCHAR guillemotleft
ENCODING 171
SWIDTH 530 0
DWIDTH 6 0
BBX 6 4 0 1
BITMAP
64
98
D8
24
ENDCHAR

STARTCHAR logicalnot
ENCODING 172
SWIDTH 608 0
DWIDTH 7 0
BBX 7 3 0 2
BITMAP
FE
02
02
ENDCHAR

STARTCHAR hyphen
ENCODING 173
SWIDTH 325 0
DWIDTH 4 0
BBX 3 1 0 3
BITMAP
E0
ENDCHAR

STARTCHAR registered
ENCODING 174
SWIDTH 608 0
DWIDTH 7 0
BBX 5 6 1 3
BITMAP
70
F8
D8
E8
D8
70
ENDCHAR

STARTCHAR macron
ENCODING 175
SWIDTH 602 0
DWIDTH 7 0
BBX 3 1 2 7
BITMAP
E0
ENDCHAR

STARTCHAR degree
ENCODING 176
SWIDTH 259 0
DWIDTH 3 0
BBX 3 3 0 6
BITMAP
E0
A0
E0
ENDCHAR

STARTCHAR plusminus
ENCODING 177
SWIDTH 608 0
DWIDTH 7 0
BBX 7 6 0 0
BITMAP
10
10
FE
10
00
FE
ENDCHAR

STARTCHAR twosuperior
ENCODING 178
SWIDTH 365 0
DWIDTH 4 0
BBX 3 5 -6 4
BITMAP
E0
A0
60
80
E0
ENDCHAR

STARTCHAR threesuperior
ENCODING 179
SWIDTH 365 0
DWIDTH 4 0
BBX 3 5 -6 4
BITMAP
E0
20
C0
20
E0
ENDCHAR

STARTCHAR acute
ENCODING 180
SWIDTH 602 0
DWIDTH 7 0
BBX 3 2 2 7
BITMAP
60
80
ENDCHAR

STARTCHAR mu
ENCODING 181
SWIDTH 626 0
DWIDTH 8 0
BBX 7 8 0 -2
BITMAP
CC
44
44
44
44
7E
40
40
ENDCHAR

STARTCHAR paragraph
ENCODING 182
SWIDTH 608 0
DWIDTH 7 0
BBX 5 11 1 -2
BITMAP
F8
E8
E8
68
28
28
28
28
28
28
28
ENDCHAR

STARTCHAR periodcentered
ENCODING 183
SWIDTH 608 0
DWIDTH 7 0
BBX 1 1 3 3
BITMAP
80
ENDCHAR

STARTCHAR cedilla
ENCODING 184
SWIDTH 602 0
DWIDTH 7 0
BBX 2 3 3 -3
BITMAP
80
C0
C0
ENDCHAR

STARTCHAR onesuperior
ENCODING 185
SWIDTH 365 0
DWIDTH 4 0
BBX 3 5 -6 4
BITMAP
C0
40
40
40
E0
ENDCHAR

STARTCHAR ordmasculine
ENCODING 186
SWIDTH 428 0
DWIDTH 5 0
BBX 4 5 1 4
BITMAP
60
90
90
90
60
ENDCHAR

STARTCHAR guillemotright
ENCODING 187
SWIDTH 530 0
DWIDTH 6 0
BBX 6 4 0 1
BITMAP
90
6C
68
98
ENDCHAR

STARTCHAR onequarter
ENCODING 188
SWIDTH 766 0
DWIDTH 9 0
BBX 9 9 2 0
BITMAP
C100
4200
4600
4400
E900
1B00
1500
2780
4100
ENDCHAR

STARTCHAR onehalf
ENCODING 189
SWIDTH 766 0
DWIDTH 9 0
BBX 9 9 2 0
BITMAP
C100
4200
4600
4400
EF80
1880
1180
2600
4780
ENDCHAR

STARTCHAR threequarters
ENCODING 190
SWIDTH 766 0
DWIDTH 9 0
BBX 9 9 2 0
BITMAP
E100
2200
C600
2400
E900
1B00
1500
2780
4100
ENDCHAR

STARTCHAR questiondown
ENCODING 191
SWIDTH 480 0
DWIDTH 6 0
BBX 5 9 0 -3
BITMAP
10
00
10
10
60
C0
88
88
78
ENDCHAR

STARTCHAR Agrave
ENCODING 192
SWIDTH 744 0
DWIDTH 9 0
BBX 9 12 0 0
BITMAP
1800
0400
0000
0800
0800
1C00
2400
2400
2200
3E00
4100
C380
ENDCHAR

STARTCHAR Aacute
ENCODING 193
SWIDTH 744 0
DWIDTH 9 0
BBX 9 12 0 0
BITMAP
0C00
1000
0000
0800
0800
1C00
2400
2400
2200
3E00
4100
C380
ENDCHAR

STARTCHAR Acircumflex
ENCODING 194
SWIDTH 744 0
DWIDTH 9 0
BBX 9 12 0 0
BITMAP
1800
2400
0000
0800
0800
1C00
2400
2400
2200
3E00
4100
C380
ENDCHAR

STARTCHAR Atilde
ENCODING 195
SWIDTH 744 0
DWIDTH 9 0
BBX 9 12 0 0
BITMAP
3400
2C00
0000
0800
0800
1C00
2400
2400
2200
3E00
4100
C380
ENDCHAR

STARTCHAR Adieresis
ENCODING 196
SWIDTH 744 0
DWIDTH 9 0
BBX 9 11 0 0
BITMAP
1400
0000
0800
0800
1C00
2400
2400
2200
3E00
4100
C380
ENDCHAR

STARTCHAR Aring
ENCODING 197
SWIDTH 744 0
DWIDTH 9 0
BBX 9 12 0 0
BITMAP
1800
2400
2400
1800
0800
1C00
2400
2400
2200
3E00
4100
C380
ENDCHAR

STARTCHAR AE
ENCODING 198
SWIDTH 919 0
DWIDTH 11 0
BBX 9 9 1 0
BITMAP
0780
0C80
1400
1480
1780
2480
7C00
8480
CF80
ENDCHAR

STARTCHAR Ccedilla
ENCODING 199
SWIDTH 695 0
DWIDTH 8 0
BBX 7 12 1 -3
BITMAP
3C
42
82
80
80
80
80
42
3C
10
08
18
ENDCHAR

STARTCHAR Egrave
ENCODING 200
SWIDTH 566 0
DWIDTH 7 0
BBX 6 12 0 0
BITMAP
60
10
00
FC
44
40
48
78
48
40
44
FC
ENDCHAR

STARTCHAR Eacute
ENCODING 201
SWIDTH 566 0
DWIDTH 7 0
BBX 6 12 0 0
BITMAP
18
20
00
FC
44
40
48
78
48
40
44
FC
ENDCHAR

STARTCHAR Ecircumflex
ENCODING 202
SWIDTH 566 0
DWIDTH 7 0
BBX 6 12 0 0
BITMAP
30
48
00
FC
44
40
48
78
48
40
44
FC
ENDCHAR

STARTCHAR Edieresis
ENCODING 203
SWIDTH 566 0
DWIDTH 7 0
BBX 6 11 0 0
BITMAP
28
00
FC
44
40
48
78
48
40
44
FC
ENDCHAR

STARTCHAR Igrave
ENCODING 204
SWIDTH 325 0
DWIDTH 4 0
BBX 3 12 0 0
BITMAP
C0
20
00
E0
40
40
40
40
40
40
40
E0
ENDCHAR

STARTCHAR Iacute
ENCODING 205
SWIDTH 325 0
DWIDTH 4 0
BBX 3 12 0 0
BITMAP
60
80
00
E0
40
40
40
40
40
40
40
E0
ENDCHAR

STARTCHAR Icircumflex
ENCODING 206
SWIDTH 325 0
DWIDTH 4 0
BBX 4 12 0 0
BITMAP
60
90
00
E0
40
40
40
40
40
40
40
E0
ENDCHAR

STARTCHAR Idieresis
ENCODING 207
SWIDTH 325 0
DWIDTH 4 0
BBX 3 11 0 0
BITMAP
A0
00
E0
40
40
40
40
40
40
40
E0
ENDCHAR

STARTCHAR Eth
ENCODING 208
SWIDTH 768 0
DWIDTH 9 0
BBX 8 9 0 0
BITMAP
FC
42
41
41
41
F1
41
42
FC
ENDCHAR

STARTCHAR Ntilde
ENCODING 209
SWIDTH 751 0
DWIDTH 9 0
BBX 9 12 0 0
BITMAP
1A00
1600
0000
C380
6100
5100
5900
4900
4500
4300
4100
E100
ENDCHAR

STARTCHAR Ograve
ENCODING 210
SWIDTH 777 0
DWIDTH 9 0
BBX 8 12 1 0
BITMAP
30
08
00
3C
42
81
81
81
81
81
42
3C
ENDCHAR

STARTCHAR Oacute
ENCODING 211
SWIDTH 777 0
DWIDTH 9 0
BBX 8 12 1 0
BITMAP
0C
10
00
3C
42
81
81
81
81
81
42
3C
ENDCHAR

STARTCHAR Ocircumflex
ENCODING 212
SWIDTH 777 0
DWIDTH 9 0
BBX 8 12 1 0
BITMAP
18
24
00
3C
42
81
81
81
81
81
42
3C
ENDCHAR

STARTCHAR Otilde
ENCODING 213
SWIDTH 777 0
DWIDTH 9 0
BBX 8 12 1 0
BITMAP
34
2C
00
3C
42
81
81
81
81
81
42
3C
ENDCHAR

STARTCHAR Odieresis
ENCODING 214
SWIDTH 777 0
DWIDTH 9 0
BBX 8 11 1 0
BITMAP
14
00
3C
42
81
81
81
81
81
42
3C
ENDCHAR

STARTCHAR multiply
ENCODING 215
SWIDTH 608 0
DWIDTH 7 0
BBX 7 7 0 0
BITMAP
82
44
28
10
28
44
82
ENDCHAR

STARTCHAR Oslash
ENCODING 216
SWIDTH 777 0
DWIDTH 9 0
BBX 8 9 1 0
BITMAP
3D
42
85
8D
99
91
A1
42
BC
ENDCHAR

STARTCHAR Ugrave
ENCODING 217
SWIDTH 719 0
DWIDTH 9 0
BBX 8 12 0 0
BITMAP
30
08
00
E7
42
42
42
42
42
42
66
3C
ENDCHAR

STARTCHAR Uacute
ENCODING 218
SWIDTH 719 0
DWIDTH 9 0
BBX 8 12 0 0
BITMAP
0C
10
00
E7
42
42
42
42
42
42
66
3C
ENDCHAR

STARTCHAR Ucircumflex
ENCODING 219
SWIDTH 719 0
DWIDTH 9 0
BBX 8 12 0 0
BITMAP
18
24
00
E7
42
42
42
42
42
42
66
3C
ENDCHAR

STARTCHAR Udieresis
ENCODING 220
SWIDTH 719 0
DWIDTH 9 0
BBX 8 11 0 0
BITMAP
14
00
E7
42
42
42
42
42
42
66
3C
ENDCHAR

STARTCHAR Yacute
ENCODING 221
SWIDTH 678 0
DWIDTH 8 0
BBX 8 12 0 0
BITMAP
0C
10
00
E7
42
24
38
18
10
10
10
38
ENDCHAR

STARTCHAR Thorn
ENCODING 222
SWIDTH 573 0
DWIDTH 7 0
BBX 6 9 0 0
BITMAP
E0
40
78
44
44
44
4C
78
E0
ENDCHAR

STARTCHAR germandbls
ENCODING 223
SWIDTH 614 0
DWIDTH 7 0
BBX 7 9 0 0
BITMAP
78
48
48
50
58
4C
42
52
FC
ENDCHAR

STARTCHAR agrave
ENCODING 224
SWIDTH 543 0
DWIDTH 7 0
BBX 6 9 0 0
BITMAP
60
10
00
F8
88
78
88
88
7C
ENDCHAR

STARTCHAR aacute
ENCODING 225
SWIDTH 543 0
DWIDTH 7 0
BBX 6 9 0 0
BITMAP
18
20
00
F8
88
78
88
88
7C
ENDCHAR

STARTCHAR acircumflex
ENCODING 226
SWIDTH 543 0
DWIDTH 7 0
BBX 6 9 0 0
BITMAP
30
48
00
F8
88
78
88
88
7C
ENDCHAR

STARTCHAR atilde
ENCODING 227
SWIDTH 543 0
DWIDTH 7 0
BBX 6 9 0 0
BITMAP
68
58
00
F8
88
78
88
88
7C
ENDCHAR

STARTCHAR adieresis
ENCODING 228
SWIDTH 543 0
DWIDTH 7 0
BBX 6 8 0 0
BITMAP
50
00
F8
88
78
88
88
7C
ENDCHAR

STARTCHAR aring
ENCODING 229
SWIDTH 543 0
DWIDTH 7 0
BBX 6 9 0 0
BITMAP
30
48
48
F8
88
78
88
88
7C
ENDCHAR

STARTCHAR ae
ENCODING 230
SWIDTH 819 0
DWIDTH 10 0
BBX 8 6 1 0
BITMAP
FE
91
7F
90
98
6F
ENDCHAR

STARTCHAR ccedilla
ENCODING 231
SWIDTH 509 0
DWIDTH 6 0
BBX 5 9 1 -3
BITMAP
78
C8
80
80
C0
78
20
30
30
ENDCHAR

STARTCHAR egrave
ENCODING 232
SWIDTH 530 0
DWIDTH 6 0
BBX 5 9 1 0
BITMAP
60
10
00
70
88
F8
80
C0
78
ENDCHAR

STARTCHAR eacute
ENCODING 233
SWIDTH 530 0
DWIDTH 6 0
BBX 5 9 1 0
BITMAP
30
40
00
70
88
F8
80
C0
78
ENDCHAR

STARTCHAR ecircumflex
ENCODING 234
SWIDTH 530 0
DWIDTH 6 0
BBX 5 9 1 0
BITMAP
30
48
00
70
88
F8
80
C0
78
ENDCHAR

STARTCHAR edieresis
ENCODING 235
SWIDTH 530 0
DWIDTH 6 0
BBX 5 8 1 0
BITMAP
50
00
70
88
F8
80
C0
78
ENDCHAR

STARTCHAR igrave
ENCODING 236
SWIDTH 307 0
DWIDTH 4 0
BBX 3 9 0 0
BITMAP
C0
20
00
C0
40
40
40
40
E0
ENDCHAR

STARTCHAR iacute
ENCODING 237
SWIDTH 307 0
DWIDTH 4 0
BBX 3 9 0 0
BITMAP
60
80
00
C0
40
40
40
40
E0
ENDCHAR

STARTCHAR icircumflex
ENCODING 238
SWIDTH 307 0
DWIDTH 4 0
BBX 4 9 1 0
BITMAP
60
90
00
60
20
20
20
20
70
ENDCHAR

STARTCHAR idieresis
ENCODING 239
SWIDTH 307 0
DWIDTH 4 0
BBX 3 8 0 0
BITMAP
A0
00
C0
40
40
40
40
E0
ENDCHAR

STARTCHAR eth
ENCODING 240
SWIDTH 596 0
DWIDTH 7 0
BBX 6 9 1 0
BITMAP
E4
18
38
08
7C
84
84
84
78
ENDCHAR

STARTCHAR ntilde
ENCODING 241
SWIDTH 633 0
DWIDTH 8 0
BBX 7 9 0 0
BITMAP
68
58
00
FC
44
44
44
44
EE
ENDCHAR

STARTCHAR ograve
ENCODING 242
SWIDTH 602 0
DWIDTH 7 0
BBX 6 9 1 0
BITMAP
60
10
00
78
CC
84
84
CC
78
ENDCHAR

STARTCHAR oacute
ENCODING 243
SWIDTH 602 0
DWIDTH 7 0
BBX 6 9 1 0
BITMAP
18
20
00
78
CC
84
84
CC
78
ENDCHAR

STARTCHAR ocircumflex
ENCODING 244
SWIDTH 602 0
DWIDTH 7 0
BBX 6 9 1 0
BITMAP
30
48
00
78
CC
84
84
CC
78
ENDCHAR

STARTCHAR otilde
ENCODING 245
SWIDTH 602 0
DWIDTH 7 0
BBX 6 9 1 0
BITMAP
68
58
00
78
CC
84
84
CC
78
ENDCHAR

STARTCHAR odieresis
ENCODING 246
SWIDTH 602 0
DWIDTH 7 0
BBX 6 8 1 0
BITMAP
28
00
78
CC
84
84
CC
78
ENDCHAR

STARTCHAR divide
ENCODING 247
SWIDTH 608 0
DWIDTH 7 0
BBX 7 5 0 1
BITMAP
10
00
FE
00
10
ENDCHAR

STARTCHAR oslash
ENCODING 248
SWIDTH 602 0
DWIDTH 7 0
BBX 6 6 1 0
BITMAP
7C
CC
94
A4
CC
F8
ENDCHAR

STARTCHAR ugrave
ENCODING 249
SWIDTH 633 0
DWIDTH 8 0
BBX 7 9 0 0
BITMAP
30
08
00
CC
44
44
44
44
7E
ENDCHAR

STARTCHAR uacute
ENCODING 250
SWIDTH 633 0
DWIDTH 8 0
BBX 7 9 0 0
BITMAP
18
20
00
CC
44
44
44
44
7E
ENDCHAR

STARTCHAR ucircumflex
ENCODING 251
SWIDTH 633 0
DWIDTH 8 0
BBX 7 9 0 0
BITMAP
18
24
00
CC
44
44
44
44
7E
ENDCHAR

STARTCHAR udieresis
ENCODING 252
SWIDTH 633 0
DWIDTH 8 0
BBX 7 8 0 0
BITMAP
28
00
CC
44
44
44
44
7E
ENDCHAR

STARTCHAR yacute
ENCODING 253
SWIDTH 551 0
DWIDTH 7 0
BBX 7 12 0 -3
BITMAP
18
20
00
E6
44
64
28
28
10
10
30
60
ENDCHAR

STARTCHAR thorn
ENCODING 254
SWIDTH 642 0
DWIDTH 8 0
BBX 7 11 0 -3
BITMAP
C0
40
7C
42
42
42
46
7C
40
40
E0
ENDCHAR

STARTCHAR ydieresis
ENCODING 255
SWIDTH 551 0
DWIDTH 7 0
BBX 7 11 0 -3
BITMAP
28
00
E6
44
64
28
28
10
10
30
60
ENDCHAR
ENDFONT
